<svg xmlns="http://www.w3.org/2000/svg" fill="none" viewBox="0 0 600 600"><path fill="#00758F" d="m178.5 365.6 18.2 59.2a80 80 0 0 1 5.1 28.1q15-40 21-87.3h21.9q-14.2 77-37.3 111.8-18 27-39.6 26.9-5.7 0-14.1-3.5v-12.3q4.1.6 9.6.6 10 0 16.2-5.6 7.5-6.8 7.4-15.2 0-5.7-5.7-23.6l-25.5-79.1zM38.9 329.2l33.4 102h.2l33.6-102h27.5q9 75.9 10.7 138.7H121q-1.2-58.8-6.8-110.5h-.2L79 467.9H61.3l-35-110.5H26q-3.9 49.7-4.9 110.5H0q2.1-74 10.2-138.7z"/><path fill="#F29111" d="M413 327.2q54 0 54 68.8 0 37.5-16.2 56.5-3 3.4-6.4 6.2l25.4 12.6-9 15.5-33.1-19.3a64 64 0 0 1-18.1 2.5q-26.5 0-39.6-15.4-14.3-17.1-14.3-53.7 0-37.1 16.2-56.3a51 51 0 0 1 41.2-17.4m-110 .2q19.4 0 35.1 10.3l-5.3 11.9q-13.6-5.8-26.7-5.8-10.6 0-16.3 5.2a17 17 0 0 0-6.2 13.1q.2 12.3 16.6 21.4 4.6 2.4 10.6 5.8l.8.5.4.2.8.5.4.2.8.4 15.9 9c10.8 7.7 16.2 16 16.2 29.4q0 17.6-13 29a51 51 0 0 1-34.5 11.2 69 69 0 0 1-39.4-13l6-11.8q16.3 8.2 29.7 8.2 12.4 0 19.5-5.5a19 19 0 0 0 7.6-15.4c0-8.3-5.8-15.3-16.3-21.2l-9.8-5.5-.8-.5-4.4-2.5-.8-.4-13.3-7.6c-10.5-7.7-15.7-16-15.7-29.5q0-16.9 11.7-27.2 11.8-10.4 30.5-10.4m206.2 1.8V451H553v17h-65.7V329.2zM577.1 451v2.9h-4.8V468h-3.7v-14.1h-5V451zm8.8 0 4.6 11.6 4.3-11.6h5.2v17h-3.5v-13l-4.8 13h-2.5l-4.8-13h-.2v13h-3.3v-17zM411 344.2q-31.8 0-31.8 52.4 0 30 8.4 43.6 7.8 12.5 24.4 12.5 31.7 0 31.7-52.8 0-29.6-8.4-43.1-7.8-12.6-24.4-12.6"/><path fill="#00758F" d="M355.3 104.3c7-17.2 31.6-4.2 41.1 1.9 2.4 1.5 5 4.6 7.7 5.8l12.6.7c7.8 1.8 15.2 3.3 21.4 6.9a168 168 0 0 1 64.6 62.6c3.7 6 5.6 12.6 8.6 19.1 4.1 9.8 8.8 20 13.7 29.2 2.1 4.4 3.8 9.2 6.8 12.9 1.2 1.7 4.5 2.2 6.5 3.2 5.5 2.8 12.2 5 17.4 8.4 9.7 6 19 13.2 27.6 20.6 3.2 2.8 5.3 6.8 8.4 9.9v1.5l-8 2.3c-6 1.5-11.1 1.2-16.8 2.7-3.5 1-7.8 2.3-11.5 2.7l.3.3c2.2 6.2 13.9 11.2 19.2 15a80 80 0 0 1 17.4 16.8l5 4.9c1.2 1.7 1.5 3.9 2.7 5.4v.5a8 8 0 0 1-3.1-2.3l-.6-.5-1.6-1.6c-3.7-2.5-7.4-5.5-11-7.9-6.4-4-13.8-6.3-20.3-10.4q-5.5-3.5-10.7-7.7A39 39 0 0 1 544 297c-1.2-1.8-1.3-4-2.7-5.3.3-2.3 2.3-3 4.4-3.5l.5-.1 2-.6a77 77 0 0 1 32.4-4.7c-.5-3.4-8.8-7.6-11.5-9.6-5.4-3.8-11-7.9-16.7-11.4-3-1.8-8.2-3.2-11.6-4.7-4.5-1.8-14.5-3.7-17-7.2a92 92 0 0 1-10.3-18.8l-.8-1.8-.8-1.8c-3.5-8-7.8-16.4-11.3-24.7-1.9-4-2.7-7.5-4.7-11.3a149 149 0 0 0-52.2-57.4c-7.1-4.5-15.2-8.7-24-11.5-5-1.5-11-.7-16.4-1.9h-3.5c-3-.8-5.5-4-7.9-5.7a85 85 0 0 0-16.5-8.3c-2.2-1-8.4-3.4-10.5-1.5q-2 .3-2.4 2.1c-1.3 2-.1 5 .7 7 2.5 5.3 6 8.4 9.2 13 2.8 4 6.3 8.5 8.3 12.9 4.4 9.4 6.4 19.7 10.4 29.1 1.5 3.6 3.8 7.6 6 10.8 1.8 2.5 5.2 4.3 6.2 7.5 2 3.3-3 14.4-4.2 18a73 73 0 0 0 1.8 45.3l.3.6c1.8 4.4 3.7 9.1 8.6 10.3.3-.3 0-.1.7-.3 1.2-9.2 1.5-18.1 4.7-25.3 1.8-4.5 5.5-7.7 8-11.4 1.7 1 1.7 4 2.7 6a214 214 0 0 0 25.9 46.6c2.3 3.4 5.6 7 8.6 10 1.4 1.2 2.9 2 3.9 3.4h.3v.5c-5-1.8-8.2-7-12.2-10a96 96 0 0 1-21.7-22.5q-3.3-7-6.9-13.9v-.3c-1 1.3-.6 2.6-1.1 4.7-2.2 8.3-.5 17.9-8 20.9-8.6 3.5-15-5.7-17.6-9.9a74 74 0 0 1-4.8-56.3c1.3-4.2 1.5-9.2 3.8-12.5-.5-3-2.8-3.9-4.2-5.8a79 79 0 0 1-6.1-10.3c-3.6-7-6-15.1-8.7-22.5-1.2-3-1.5-6-2.7-8.9-2-4.3-5.7-8.7-8.5-12.5-3.9-5.6-15-16.3-10.6-27.2m54.8 32.8 1.6 1.3.7.4q1.4.9 2.3 2.2c.8 1.2 1 2.3 2 3.5q0 6-3.6 8.4l-.3.3-3.8-8c-1.7-2.3-4-4.2-5.4-6.9h-.3v-.3q2.8-.8 6.8-.9"/></svg>