<svg xmlns="http://www.w3.org/2000/svg" fill="none" viewBox="0 0 600 600"><g clip-path="url(#devicon-tensorflow-1-a)"><path fill="#E55B2D" d="M340 92.3v92.3L499.8 277v-92.3zM20.2 184.6V277l80 46.2v-92.3zM260 230.8l-80 46.1v277l80 46.1V415.4l80 46.1v-92.3l-80-46.1z"/><path fill="#ED8E24" d="M340 92.3 100 230.8V323l160-92.3V323l79.9-46.2zm239.8 46.2-80 46.1V277l80-46.1zM419.9 323l-80 46.1v92.3l80-46.1zm-80 138.4-79.9-46V600l80-46.2z"/><path fill="#F8BF3C" d="M340 0 20.2 184.6l80 46.2L340 92.3l159.8 92.3 80-46.1zm0 277-80 46 80 46.2 80-46.1z"/></g><defs><clipPath id="devicon-tensorflow-1-a"><path fill="#fff" d="M0 0h600v600H0z"/></clipPath></defs></svg>